<?xml version="1.0" standalone="no"?><svg xmlns="http://www.w3.org/2000/svg" viewBox="0 0 1440 320"><path fill="#e7008a" fill-opacity="1" d="M0,0L20,42.7C40,85,80,171,120,224C160,277,200,299,240,298.7C280,299,320,277,360,229.3C400,181,440,107,480,74.7C520,43,560,53,600,90.7C640,128,680,192,720,218.7C760,245,800,235,840,208C880,181,920,139,960,144C1000,149,1040,203,1080,197.3C1120,192,1160,128,1200,101.3C1240,75,1280,85,1320,74.7C1360,64,1400,32,1420,16L1440,0L1440,320L1420,320C1400,320,1360,320,1320,320C1280,320,1240,320,1200,320C1160,320,1120,320,1080,320C1040,320,1000,320,960,320C920,320,880,320,840,320C800,320,760,320,720,320C680,320,640,320,600,320C560,320,520,320,480,320C440,320,400,320,360,320C320,320,280,320,240,320C200,320,160,320,120,320C80,320,40,320,20,320L0,320Z"></path></svg>